PathFileType	4	(X/Y/Z)	/Users/itak/Documents/Research/Walk-IL/dataset/trc/00226_00009.trc
DataRate	CameraRate	NumFrames	NumMarkers	Units	OrigDataRate	OrigDataStartFrame	OrigNumFrames
100.000000	100.000000	4	53	mm	100.000000	113	455
Frame#	Time	RPSI			LPSI			L3			STRN			T10			C7			CLAV			RBAK			LBAK			LSHO			LUPA			LAEL			LAOL			LWTS			LWPS			LFRA			LIFD			LHPS			LHTS			RSHO			RUPA			RAEL			RAOL			RWTS			RWPS			RFRA			RIFD			RHTS			RHPS			RBHD			LFHD			RFHD			LBHD			LHIP			RHIP			RASI			LASI			LKNE			LTHI			LANK			LTIP			LTOE			LMT1			LMT5			LHEE			RKNE			RANK			RTIP			RTOE			RMT1			RMT5			RHEE			RTHI			
		X1	Y1	Z1	X2	Y2	Z2	X3	Y3	Z3	X4	Y4	Z4	X5	Y5	Z5	X6	Y6	Z6	X7	Y7	Z7	X8	Y8	Z8	X9	Y9	Z9	X10	Y10	Z10	X11	Y11	Z11	X12	Y12	Z12	X13	Y13	Z13	X14	Y14	Z14	X15	Y15	Z15	X16	Y16	Z16	X17	Y17	Z17	X18	Y18	Z18	X19	Y19	Z19	X20	Y20	Z20	X21	Y21	Z21	X22	Y22	Z22	X23	Y23	Z23	X24	Y24	Z24	X25	Y25	Z25	X26	Y26	Z26	X27	Y27	Z27	X28	Y28	Z28	X29	Y29	Z29	X30	Y30	Z30	X31	Y31	Z31	X32	Y32	Z32	X33	Y33	Z33	X34	Y34	Z34	X35	Y35	Z35	X36	Y36	Z36	X37	Y37	Z37	X38	Y38	Z38	X39	Y39	Z39	X40	Y40	Z40	X41	Y41	Z41	X42	Y42	Z42	X43	Y43	Z43	X44	Y44	Z44	X45	Y45	Z45	X46	Y46	Z46	X47	Y47	Z47	X48	Y48	Z48	X49	Y49	Z49	X50	Y50	Z50	X51	Y51	Z51	X52	Y52	Z52	X53	Y53	Z53	

114	1.13	-942.0327758789062	1017.6337890625	-96.96959686279297	-947.38037109375	1021.708129882812	23.73764991760254	-942.9911499023438	1105.784301757812	-17.91243934631348	-1192.93115234375	1293.736450195312	-15.51388263702393	-938.0196533203125	1232.494506835938	-21.66402435302734	-998.58154296875	1494.413940429688	-15.69294452667236	-1165.828002929688	1411.38916015625	-14.59751129150391	-924.3770751953125	1356.844482421875	-93.51624298095703	-981.1803588867188	1454.138305664062	97.11003112792969	-1072.517211914062	1455.731201171875	151.3861389160156	-1054.99658203125	1336.752319335938	231.2783813476562	-1092.75341796875	1129.508544921875	263.710205078125	-1021.098205566406	1102.779663085938	220.8499755859375	-1226.079956054688	921.4977416992188	195.6799621582031	-1207.464721679688	895.720458984375	275.0926208496094	-1136.3037109375	1027.925415039062	274.3406372070312	-1279.243408203125	734.5558471679688	195.6197509765625	-1245.293090820312	814.6458129882812	266.5452575683594	-1284.818969726562	831.7888793945312	213.2954406738281	-1062.316040039062	1454.857788085938	-183.1564025878906	-1047.504272460938	1391.568359375	-252.2701110839844	-1048.48681640625	1111.534057617188	-301.4465026855469	-1005.549560546875	1097.60986328125	-216.5727691650391	-1196.66796875	906.8470458984375	-257.7868347167969	-1149.641479492188	891.0598754882812	-325.808349609375	-1080.803100585938	1045.994262695312	-314.5328979492188	-1226.796508789062	716.4302978515625	-257.0925598144531	-1247.455322265625	791.0263061523438	-274.6846923828125	-1198.274047851562	787.7327880859375	-328.0531921386719	-1053.410278320312	1621.762451171875	-101.212890625	-1184.089233398438	1724.636108398438	54.76151657104492	-1223.781127929688	1719.739013671875	-37.20066070556641	-1039.233764648438	1646.528930664062	36.35672760009766	-1053.518798828125	960.8162841796875	161.5888214111328	-1042.689208984375	986.347900390625	-204.0494995117188	-1137.882202148438	1031.612670898438	-169.15283203125	-1152.625244140625	1006.330749511719	111.1865234375	-1093.246337890625	476.9425354003906	103.5251235961914	-1094.360961914062	621.4241943359375	134.3572082519531	-831.446044921875	59.22946166992188	104.6010665893555	-961.458251953125	280.8862609863281	116.1926193237305	-1039.7490234375	45.32054138183594	38.60650634765625	-969.7158203125	46.53713989257812	-0.8355773091316223	-957.2825927734375	39.43583297729492	113.4882125854492	-768.8059692382812	84.70487213134766	58.27751541137695	-1230.815795898438	527.7832641601562	-172.7791137695312	-1256.96728515625	39.20025634765625	-155.1313781738281	-1269.479736328125	411.3975219726562	-156.4727783203125	-1468.05224609375	49.03388595581055	-107.3605880737305	-1411.179809570312	47.04296493530273	-66.77460479736328	-1367.609252929688	40.72445678710938	-178.3560485839844	-1194.339721679688	40.26627349853516	-95.74303436279297	nan	nan	nan	
115	1.14	-934.8734130859375	1017.003356933594	-95.18684387207031	-939.9813232421875	1021.230346679688	25.50046539306641	-935.5408935546875	1105.188110351562	-15.91004753112793	-1185.55615234375	1293.3544921875	-13.13989067077637	-930.7724609375	1231.956298828125	-19.37784194946289	-991.1791381835938	1493.898193359375	-13.25698089599609	-1158.455688476562	1411.0283203125	-12.23659229278564	-917.0473022460938	1356.287231445312	-91.021484375	-973.7640991210938	1453.609619140625	99.55750274658203	-1065.121215820312	1455.324829101562	153.6904907226562	-1048.251098632812	1336.44677734375	233.7713928222656	-1087.952270507812	1129.523559570312	266.290283203125	-1016.329406738281	1102.146484375	223.7629241943359	-1222.665893554688	922.439697265625	198.0620422363281	-1204.558227539062	896.75146484375	277.6332397460938	-1132.35498046875	1028.313720703125	276.90869140625	-1277.557495117188	736.0687255859375	198.2352905273438	-1243.079833984375	816.0198364257812	269.1163330078125	-1282.324096679688	833.4047241210938	215.6966400146484	-1054.788818359375	1454.472412109375	-180.8053894042969	-1039.891845703125	1391.135375976562	-249.8810424804688	-1040.864013671875	1111.15185546875	-298.9540405273438	-998.5902099609375	1097.168090820312	-213.9536285400391	-1189.165649414062	906.3038330078125	-256.5235900878906	-1141.79443359375	890.7306518554688	-324.336181640625	-1073.145141601562	1045.673950195312	-312.3168334960938	-1219.109985351562	715.8341674804688	-256.5272216796875	-1239.74267578125	790.463134765625	-274.0013732910156	-1190.304809570312	787.3624267578125	-327.1235961914062	-1046.481201171875	1621.6669921875	-98.68377685546875	-1177.755981445312	1723.815063476562	57.27908325195312	-1217.374145507812	1718.7568359375	-34.73430252075195	-1032.497314453125	1646.482299804688	38.87830352783203	-1045.740600585938	960.651611328125	163.7653656005859	-1036.460083007812	985.7675170898438	-201.6748657226562	-1130.7080078125	1031.400512695312	-166.77392578125	-1145.007934570312	1006.095642089844	113.5337142944336	-1087.19140625	476.8205261230469	104.1842575073242	-1087.731201171875	621.2323608398438	135.6102142333984	-830.1705932617188	56.87213134765625	102.7960586547852	-957.7510986328125	279.0122985839844	115.4490509033203	-1039.65771484375	45.20576477050781	38.43818664550781	-969.4417724609375	45.6650276184082	-1.460521936416626	-956.642333984375	39.59917068481445	112.907829284668	-767.4087524414062	80.85467529296875	55.88344955444336	-1224.524780273438	527.7593383789062	-171.7346496582031	-1256.715454101562	38.99335098266602	-155.3112030029297	-1264.167846679688	411.7605895996094	-155.8660736083984	-1467.164916992188	51.65779495239258	-107.4402542114258	-1410.479736328125	48.59743118286133	-66.789306640625	-1367.42236328125	41.306640625	-178.0779876708984	-1194.025146484375	39.76570129394531	-95.97350311279297	nan	nan	nan	
116	1.15	-927.7113647460938	1016.528503417969	-93.37903594970703	-932.6171875	1020.843688964844	27.27560997009277	-928.0986328125	1104.683227539062	-13.93129825592041	-1178.135620117188	1293.141845703125	-10.76216411590576	-923.4906616210938	1231.478393554688	-17.13545417785645	-983.6570434570312	1493.467163085938	-10.86117839813232	-1150.991943359375	1410.82275390625	-9.878798484802246	-909.7169799804688	1355.780151367188	-88.60015869140625	-966.216552734375	1453.159057617188	101.9594039916992	-1057.572143554688	1455.0498046875	155.9627838134766	-1041.362060546875	1336.268432617188	236.2207183837891	-1082.963623046875	1129.67236328125	268.7742004394531	-1011.423034667969	1101.660278320312	226.5220489501953	-1218.93408203125	923.3668823242188	200.5221252441406	-1201.33935546875	897.8767700195312	280.2000732421875	-1128.166259765625	1028.837646484375	279.4074096679688	-1275.239013671875	737.4905395507812	200.998046875	-1240.38330078125	817.41845703125	271.7743225097656	-1279.390258789062	834.9088745117188	218.1943359375	-1047.177612304688	1454.240478515625	-178.4892120361328	-1032.209716796875	1390.8671875	-247.5439758300781	-1033.074462890625	1110.901611328125	-296.423583984375	-991.571533203125	1096.901489257812	-211.2581329345703	-1181.556274414062	905.9138793945312	-255.2634582519531	-1133.767211914062	890.5180053710938	-322.798583984375	-1065.320434570312	1045.468627929688	-310.0676574707031	-1211.245239257812	715.3776245117188	-255.857177734375	-1231.86669921875	790.0256958007812	-273.285888671875	-1182.130004882812	787.0953979492188	-326.1081848144531	-1039.444213867188	1621.72119140625	-96.15547943115234	-1171.322265625	1723.106689453125	59.82392883300781	-1210.877807617188	1717.87451171875	-32.229736328125	-1025.643920898438	1646.576049804688	41.39379501342773	-1037.992797851562	960.5245971679688	165.8876495361328	-1030.078979492188	985.3777465820312	-199.3633270263672	-1123.495239257812	1031.36083984375	-164.3485565185547	-1137.405395507812	1005.935729980469	115.9021911621094	-1081.788818359375	476.7352905273438	105.0659484863281	-1081.525024414062	621.0882568359375	136.9934844970703	-829.1599731445312	54.8044548034668	101.324333190918	-954.6103515625	277.3291625976562	114.9715805053711	-1039.593505859375	45.09193420410156	38.30310440063477	-969.2075805664062	44.86402130126953	-2.010101318359375	-956.1188354492188	39.71907806396484	112.4547271728516	-766.3209228515625	77.49111938476562	53.93559265136719	-1217.956787109375	527.7819213867188	-170.7924652099609	-1256.364379882812	38.76769638061523	-155.5063018798828	-1258.5126953125	412.1717834472656	-155.3763275146484	-1466.028686523438	55.1618766784668	-107.4755172729492	-1409.531494140625	50.76891326904297	-66.71231842041016	-1367.097412109375	42.24014663696289	-177.7380065917969	-1193.564697265625	39.02372741699219	-96.24318695068359	nan	nan	nan	
117	1.16	-920.5504760742188	1016.198059082031	-91.54779052734375	-925.3075561523438	1020.517944335938	29.0669116973877	-920.6861572265625	1104.257690429688	-11.98554420471191	-1170.691284179688	1293.0771484375	-8.394209861755371	-916.1771850585938	1231.053833007812	-14.95357990264893	-976.04052734375	1493.116333007812	-8.526224136352539	-1143.462646484375	1410.746948242188	-7.53793478012085	-902.4213256835938	1355.313110351562	-86.27503204345703	-958.5586547851562	1452.77294921875	104.2964859008789	-1049.889282226562	1454.87890625	158.1902160644531	-1034.343383789062	1336.188110351562	238.6105804443359	-1077.775024414062	1129.924194335938	271.1772766113281	-1006.3583984375	1101.292846679688	229.1549072265625	-1214.895629882812	924.28662109375	203.0553283691406	-1197.808227539062	899.0581665039062	282.7882690429688	-1123.732299804688	1029.467041015625	281.8506164550781	-1272.331909179688	738.8226318359375	203.8804473876953	-1237.235717773438	818.8074340820312	274.5002136230469	-1276.040283203125	836.3043212890625	220.7720336914062	-1039.519165039062	1454.132080078125	-176.2236022949219	-1024.49755859375	1390.737426757812	-245.2771606445312	-1025.154418945312	1110.755126953125	-293.8967590332031	-984.4924926757812	1096.779541015625	-208.5273590087891	-1173.857666015625	905.646484375	-254.0075225830078	-1125.577026367188	890.3805541992188	-321.1972961425781	-1057.358154296875	1045.344604492188	-307.8165588378906	-1203.245727539062	715.0388793945312	-255.0516052246094	-1223.85693359375	789.6885986328125	-272.5188903808594	-1173.776611328125	786.8954467773438	-324.9880065917969	-1032.31591796875	1621.904174804688	-93.64125823974609	-1164.776245117188	1722.50537109375	62.39043807983398	-1204.288208007812	1717.102905273438	-29.68826484680176	-1018.679443359375	1646.774047851562	43.89593887329102	-1030.296508789062	960.3943481445312	167.9519348144531	-1023.500610351562	985.1796264648438	-197.1533203125	-1116.254516601562	1031.470581054688	-161.8908843994141	-1129.854858398438	1005.820129394531	118.2776489257812	-1077.001708984375	476.6701354980469	106.2102813720703	-1075.73974609375	620.9799194335938	138.5398712158203	-828.3880004882812	52.9768180847168	100.2690277099609	-952.00927734375	275.8088073730469	114.8260955810547	-1039.536254882812	44.99072647094727	38.20489501953125	-968.9951782226562	44.16333389282227	-2.460824012756348	-955.7054443359375	39.77131652832031	112.1626281738281	-765.47509765625	74.59013366699219	52.55265808105469	-1211.193359375	527.8722534179688	-169.9528656005859	-1255.87255859375	38.5429801940918	-155.7009124755859	-1252.59375	412.6449890136719	-154.9901580810547	-1464.603149414062	59.53023910522461	-107.4318771362305	-1408.29638671875	53.58895492553711	-66.54293060302734	-1366.571411132812	43.60277938842773	-177.3607482910156	-1192.922729492188	38.01279067993164	-96.54512786865234	nan	nan	nan	
